PathFileType	4	(X/Y/Z)	C:\Users\Owen\Repositories\CapacitiveSensingKinematics\CSOptimalControl\OutputData\FilteredlIMUGyros.trc
DataRate	CameraRate	NumFrames	NumMarkers	Units	OrigDataRate	OrigDataStartFrame	OrigNumFrames
100	100	14	8	m	100	1764	7057
Frame#	Time	/bodyset/torso/torso_imu_offset			/bodyset/pelvis/pelvis_imu_offset			/bodyset/tibia_r/tibia_r_imu_offset			/bodyset/femur_r/femur_r_imu_offset			/bodyset/tibia_l/tibia_l_imu_offset			/bodyset/femur_l/femur_l_imu_offset			/bodyset/toes_r/toes_r_imu_offset			/bodyset/toes_l/toes_l_imu_offset			
		X1	Y1	Z1	X2	Y2	Z2	X3	Y3	Z3	X4	Y4	Z4	X5	Y5	Z5	X6	Y6	Z6	X7	Y7	Z7	X8	Y8	Z8	

1765	17.64	-0.3639993721954444	0.5087040666879589	-0.09643930224892559	-0.3513743167665432	-0.09190930213690116	-0.2559762810534444	-0.3606857932314396	0.359982469235799	-1.866894480185513	-0.2980896050866639	0.2699306987092406	-0.200135096792044	0.4115752128549392	-0.7160315667652013	0.7159323293099034	-1.877907774240841	-0.6882116433393987	0.8779036370783677	-0.003329660252260214	-1.958984191573032	-0.1819323246915339	-0.4908242587060702	-3.191947858398969	0.7482205512901996	
1766	17.65	-0.3939634761212071	0.5439779939628913	-0.07548155796376296	-0.2667225233026493	-0.1004405440864908	-0.3137241919062917	-0.4099551079030731	0.3683835249669684	-1.92882823661971	-0.2894435761692956	0.3291547705665162	-0.1148759049726755	0.5488568348205332	-0.676218691759614	0.6748291872853437	-1.792102410972855	-0.6915536799147166	0.9271018255390966	0.02781395706124014	-2.272178308445852	-0.1876338753496465	-0.370875869906558	-2.983339854105378	0.8660085132646029	
1767	17.66	-0.4158544318849076	0.5642086582433029	-0.06100136196099468	-0.1339085075569689	-0.1128171926707134	-0.3864806147492121	-0.4436751065771974	0.38058180508696	-1.988123660049203	-0.2587486783968422	0.3981395341407366	-0.01793048877589268	0.2020031742990405	-0.5091180603536366	0.7884245556863877	-1.621682431826321	-0.5810581102127534	0.9437784805111029	0.07126628790454008	-2.629642680245656	-0.1852649325372871	-0.3206728433818148	-2.521834363423672	0.7702203809270212	
1768	17.67	-0.4273136840804613	0.5656956864434991	-0.05496683412703255	0.03461680263254022	-0.1313330741257892	-0.4650417616855894	-0.4556746017861119	0.3929899388878935	-2.044122562443331	-0.2066241909307843	0.4802000537482998	0.08906878149235949	-0.6153539362092189	-0.2727742762838084	0.9874624472801289	-1.433292343059216	-0.3891367427061321	0.9033582527447814	0.1320960145132746	-3.028655150421227	-0.1843885024564497	-0.3285711078869569	-1.912094467182275	0.5163479746671129	
1769	17.68	-0.4269977083688162	0.5443502087287734	-0.05829420384312272	0.2106346478859907	-0.1582151324704723	-0.536599970049328	-0.4471818915395852	0.3994808030393334	-2.096741204476284	-0.1439627484888071	0.5770396971300255	0.2054532365583537	-1.720830390240564	-0.02828306462155251	1.16916986944919	-1.294575020202122	-0.191917048625457	0.8228651161537696	0.2190947228480581	-3.460127739600774	-0.2006797909091099	-0.325167853349334	-1.28339481608438	0.1934032051997969	
1770	17.69	-0.4171778391343443	0.4996878758078218	-0.0706531690563057	0.3532363738710532	-0.1904678188786167	-0.5870297913851723	-0.4279028526544139	0.3943616177346306	-2.146406995068113	-0.09008224339833822	0.6870865755530654	0.3317552091867005	-2.83722247633199	0.1721822761414755	1.264223024936224	-1.245945119009367	-0.06933979500080384	0.7527314684420328	0.3415726775380415	-3.908578418415363	-0.2497574754706311	-0.2510796750563961	-0.7486602241087121	-0.1129760863345044	
1771	17.7	-0.4043935226614399	0.437300806982006	-0.09011558861392441	0.4190049086880522	-0.2199428128245114	-0.6053492170721949	-0.4116863557951512	0.3748748799127744	-2.193943088199199	-0.06862674604800105	0.8064485770708206	0.469970102528366	-3.68050677304923	0.2800902964979992	1.262357744655752	-1.279094610429034	-0.06179363787698423	0.7469647388398969	0.5028879249135204	-4.355765120037025	-0.3404486554544009	-0.1164769427071833	-0.371328885516244	-0.3510591348347835	
1772	17.71	-0.3970047870972168	0.3663895513198069	-0.1132919991310054	0.3769472690201833	-0.2388630407281176	-0.5889322547218977	-0.4108527872719964	0.3416476884180412	-2.241111483663287	-0.1018951468500626	0.9316802786597224	0.6235632393647946	-4.037864514132102	0.267660828825478	1.19771707351406	-1.338359270171835	-0.1517679441118482	0.8327023339938007	0.6963558012240342	-4.784906617990655	-0.4710049882308392	0.01601209941323381	-0.1495294945539003	-0.5040147280575417	
1773	17.72	-0.4018079147349325	0.2948164313946086	-0.1364283163035042	0.2213135809818678	-0.2439878922545189	-0.5463940550040657	-0.4350578281855884	0.297532087375288	-2.291062606325942	-0.2043555746903856	1.059433058163619	0.7961322514689141	-3.820212183012101	0.1477460136871071	1.114180033333774	-1.35017710388084	-0.2801394635166423	0.996188004437786	0.901001315540084	-5.181619453204892	-0.6307207217615715	0.09462570626577567	-0.03992395586182362	-0.5724979125932804	
1774	17.73	-0.4222709168777636	0.2264795648913673	-0.1568049761556222	-0.02543663567755648	-0.2353463766031526	-0.4952865728582998	-0.4943673966341011	0.2456340265145098	-2.346530693769068	-0.3774927878158823	1.182700489095367	0.988934711745142	-3.071454182408467	-0.03463942885783904	1.039213335415479	-1.26414696736653	-0.3838916664929899	1.189775034872134	1.078981094103478	-5.531058933265495	-0.8062306212918645	0.1110184395231312	0.006534014416943381	-0.5646828808429161	
1775	17.74	-0.4589444996527665	0.1625973098343008	-0.1734225711166352	-0.3207640193468683	-0.2122320242617043	-0.4547036943642578	-0.6020353636981792	0.187646852182154	-2.405305455277331	-0.6093929449225213	1.290632264830106	1.198054514581529	-1.94427458695703	-0.227357782539885	0.9818934397483601	-1.07875491016854	-0.4310880909056503	1.352727704752742	1.18497299050551	-5.81535980465323	-0.9871154894185427	0.08891472712697666	0.02536091680065139	-0.496159471777626	
1776	17.75	-0.5106174263998251	0.1043130529303433	-0.1869185636029475	-0.6150477759924633	-0.1711013859436762	-0.4365881189553141	-0.7727921730715139	0.1244497224582445	-2.456155124411424	-0.8780852202052788	1.373640871834027	1.412540072186739	-0.6615836975301868	-0.3872481963307445	0.9425599363211008	-0.8376367311018953	-0.431917479682206	1.435393180205893	1.17764543666909	-6.015767263986897	-1.166524310941218	0.05899300769505525	0.03455986427244673	-0.3897876778176138	
1777	17.76	-0.5747678545903656	0.05373988920939331	-0.1992295058210197	-0.8633284472214007	-0.1073546449222012	-0.4407054869908982	-1.012964876551704	0.05873560827828098	-2.479875965296931	-1.154155656853173	1.426963270046111	1.61561193137944	0.5319978713507043	-0.4849720327878995	0.9181446576171383	-0.604541760032126	-0.4215891549375198	1.41822058353359	1.018762171236657	-6.118407439169583	-1.338909548393105	0.04046225881733461	0.03915185584190737	-0.2720188146649635	
1778	17.77	-0.647305086966883	0.0130217625297217	-0.2130081474066838	-1.033906594810421	-0.02007633882959226	-0.4556340099176051	-1.307491034072199	-0.00449574880774725	-2.456972861675312	-1.402659666055278	1.449713662677877	1.789563127440716	1.424127771047599	-0.5093517710520743	0.9043415245687487	-0.4351905620970458	-0.4314101415931428	1.31660036474096	0.6800863315651532	-6.118321412790122	-1.500251384771419	0.03748474610409459	0.03866965672658924	-0.1664088216424409	
